<svg xmlns="http://www.w3.org/2000/svg" width="175.49mm" height="49.53mm" viewBox="0 0 497.46 140.39"><defs><style>.a,.b{fill:#fff;}.a{fill-rule:evenodd;}</style></defs><title>qatar</title><path class="a" d="M91.28,124.68c-1.07.07-2.09.14-3.16.14s-2.36-.11-3.57-.14l3.5-8.45,3.23,8.45m3.88,9.58c.62,0,1.58-.2,2.54-.2s2.17.17,2.69.2c-1.55-3.33-3.82-8.52-5.12-11.51s-3.31-7.69-5-12.4a4.26,4.26,0,0,1-1.1.17,4.3,4.3,0,0,1-1.14-.17c-.82,2.81-2.81,7.28-6.29,15.05l-4,8.86a9.74,9.74,0,0,1,1.55-.2,11.29,11.29,0,0,1,1.65.2,75.21,75.21,0,0,1,2.74-7.46c1.37-.06,2.75-.13,4.13-.13s2.92.07,4.4.13l1.44,3.65Z"/><path class="b" d="M103.4,118.63c0,5.87,0,11.55-.38,15.63.76,0,1.72-.2,2.48-.2s1.61.17,2.4.2c-.27-2.78-.34-6.49-.34-11.61a116.09,116.09,0,0,1,.38-12,21.27,21.27,0,0,1-2.44.2c-.52,0-1.79-.14-2.45-.2a69.46,69.46,0,0,1,.35,7.93"/><path class="a" d="M123.83,122.58c3.13-.58,6-2.54,6-6.35a5.33,5.33,0,0,0-1.58-3.85c-1.47-1.41-3.16-1.68-5.39-1.68-.8,0-4.78.16-5.67.16-1.75,0-2.65-.1-3.43-.16.23,4.43.23,4.91.23,9.41,0,6.63,0,7.38-.3,14.15a18.17,18.17,0,0,1,2.36-.2,21.19,21.19,0,0,1,2.31.2c0-.89-.14-5.32-.14-6.32v-4.88H119c1.85,2.61,4,5.64,5.73,8.35.52.79,1.28,2.06,1.79,2.85a16.08,16.08,0,0,1,2.78-.2,26.46,26.46,0,0,1,3.06.2c-2.16-2.71-3.09-3.91-5.81-7.73-.51-.72-1.27-1.85-1.79-2.57l-1-1.38m-5.63-10c.51,0,1.78-.17,2.44-.17a5.18,5.18,0,0,1,3.19.86,4,4,0,0,1,1.45,3.57,4.45,4.45,0,0,1-4.71,4.75c-.9,0-1.72-.08-2.37-.11Z"/><path class="b" d="M141.72,126.22c-1.6-4.77-3.84-11.47-4.91-15.52a15.54,15.54,0,0,1-2.4.2c-.82,0-2-.14-2.68-.2,1.4,3.71,2.61,7,3.54,9.61,1.58,4.47,2.61,7.57,3.85,11.34l.86,2.61a7.94,7.94,0,0,1,1.41-.2,5.28,5.28,0,0,1,1.3.2c.55-1.78,1.2-4,1.69-5.39,1.34-3.92,1.5-4.46,3.26-9.35l1-2.85c.38,1.1,1,2.85,1.4,4s2.14,6.33,2.55,7.5c.56,1.54.68,2,2,6.14a12.83,12.83,0,0,1,1.47-.2,6.76,6.76,0,0,1,1.38.2c1.31-4.08,1.45-4.5,3.37-10s3-8.41,5.12-13.56a6.22,6.22,0,0,1-3.13,0c-1.24,4.46-1.86,6.63-2.84,9.58-1.63,4.81-1.83,5.36-2.83,8q-1.65-4.44-3.16-9c-.55-1.65-2.65-8.52-2.67-8.58a6.3,6.3,0,0,1-1.52.2,9.25,9.25,0,0,1-1.51-.2c-1,4.19-4.68,14.29-5,15.21l-.86,2.24-.66-1.93"/><path class="a" d="M176.39,124.68c-1.06.07-2.09.14-3.16.14s-2.37-.11-3.57-.14l3.5-8.45,3.23,8.45m3.89,9.58c.61,0,1.57-.2,2.54-.2s2.17.17,2.68.2c-1.55-3.33-3.82-8.52-5.12-11.51s-3.3-7.69-4.95-12.4a4.12,4.12,0,0,1-1.09.17,4.18,4.18,0,0,1-1.14-.17c-.83,2.81-2.82,7.28-6.29,15.05l-4,8.86a9.76,9.76,0,0,1,1.54-.2,11.12,11.12,0,0,1,1.65.2,78.18,78.18,0,0,1,2.75-7.46c1.37-.06,2.75-.13,4.12-.13s2.92.07,4.4.13l1.44,3.65Z"/><path class="b" d="M194.7,125.06a2.65,2.65,0,0,1,.44-1.1c1.45-2.48,2.78-5.06,4.33-7.53.51-.82,3-4.81,3.55-5.73a4.15,4.15,0,0,1-1.45.2,11.15,11.15,0,0,1-2-.2,95,95,0,0,1-5.94,11.6c-2.92-5.11-4.22-7.82-6-11.6a18,18,0,0,1-2.82.2,27.78,27.78,0,0,1-2.81-.2c1.78,3,4.71,7.73,6.46,10.75l2,3.5c0,2.13-.1,6.63-.21,9.31.66-.07,1.62-.2,2.31-.2s1.58.13,2.37.2c-.14-3.19-.24-5-.24-7.94v-1.26"/><path class="b" d="M205,129.11a13.3,13.3,0,0,1-.8,3.88,14,14,0,0,0,6.43,1.76c6.29,0,8.72-4,8.72-7.53a6.86,6.86,0,0,0-1.67-4.53c-1-1.1-2-1.49-4.68-2.52-3-1.16-4.77-1.85-4.77-4.36,0-2,1.33-3.71,4.05-3.71,2.16,0,4,1,4.5,3h.48a16.58,16.58,0,0,1,1.06-3.26,12.36,12.36,0,0,0-5.7-1.41c-6.21,0-8,3.85-8,6.87,0,2.85,1,4.61,4.34,6.08,1,.42,2.58,1,3.53,1.45a4.17,4.17,0,0,1,2.83,4,4.22,4.22,0,0,1-4.51,4.3c-2,0-3.75-.52-5.32-4H205"/><path class="a" d="M14.12,65.62c0-26,13.92-33,24.43-33,16.91,0,24.23,14,24.23,29,0,8.55-1,16.59-5.27,23.09a22.45,22.45,0,0,1-18.85,10.4C19.58,95.09,14.12,77,14.12,65.62M65.45,118.7a78.38,78.38,0,0,1,11.45-6.39L53.6,97.87c14.33-5,23.3-17.82,23.3-35.24C76.9,37.9,58,27.38,38.76,27.38,17.94,27.38,0,38.92,0,65.1A35.06,35.06,0,0,0,9.9,89.94c9,9.07,19.59,10.41,28.55,10.41,1.13,0,2.26,0,3.4-.1Z"/><path class="a" d="M125,70.15c-3.2.21-6.28.42-9.48.42-3.61,0-7.12-.31-10.71-.42l10.5-25.35L125,70.15m11.65,28.76c1.85-.1,4.74-.62,7.62-.62s6.5.52,8.05.62c-4.64-10-11.45-25.56-15.37-34.53-3.71-8.66-9.89-23.1-14.84-37.21a12.13,12.13,0,0,1-3.29.52,12.26,12.26,0,0,1-3.4-.52c-2.48,8.46-8.46,21.86-18.87,45.14l-12,26.6a30.68,30.68,0,0,1,4.64-.62,35,35,0,0,1,5,.62,225.61,225.61,0,0,1,8.25-22.37c4.12-.2,8.24-.41,12.37-.41,4.43,0,8.76.21,13.19.41l4.33,10.93Z"/><path class="b" d="M182.37,46.65c0-3.91.1-7.83.2-11.55,7.12,0,14.44.11,20.51.73a20.7,20.7,0,0,1-.52-3.71,28.62,28.62,0,0,1,.52-3.92c-9.89.51-19,.62-27.52.62-7.93,0-19.38-.11-27.52-.62a16.17,16.17,0,0,1,.51,3.82,16.16,16.16,0,0,1-.51,3.81c5.26-.52,15.16-.73,16.08-.73h5.16c.1,4,.2,7.64.2,11.45l.1,28.75c0,7.84-.62,15.78-1,23.61a67.15,67.15,0,0,1,7-.62c1.24,0,4.54.31,7.53.62a110.51,110.51,0,0,1-.72-14.12V46.65"/><path class="a" d="M239.74,70.15c-3.19.21-6.29.42-9.48.42-3.61,0-7.11-.31-10.73-.42L230.05,44.8l9.69,25.35m11.65,28.76c1.85-.1,4.73-.62,7.63-.62s6.49.52,8,.62c-4.64-10-11.44-25.56-15.35-34.53-3.71-8.66-9.9-23.1-14.85-37.21a12.19,12.19,0,0,1-3.29.52,12.39,12.39,0,0,1-3.41-.52c-2.47,8.46-8.44,21.86-18.86,45.14l-11.95,26.6a30.37,30.37,0,0,1,4.63-.62,35,35,0,0,1,4.95.62,225.61,225.61,0,0,1,8.25-22.37c4.12-.2,8.24-.41,12.36-.41,4.44,0,8.77.21,13.2.41l4.33,10.93Z"/><path class="a" d="M308.57,63.87C318,62.12,326.5,56.24,326.5,44.8a16,16,0,0,0-4.74-11.55c-4.43-4.22-9.48-5.05-16.19-5.05-2.36,0-14.32.51-17,.51a96.26,96.26,0,0,1-10.31-.51c.72,13.3.72,14.74.72,28.24,0,19.9-.1,22.15-.93,42.47a53.68,53.68,0,0,1,7.11-.62,65.61,65.61,0,0,1,6.92.62c0-2.68-.42-16-.42-19V65.31h2.48c5.56,7.83,12,16.9,17.21,25,1.54,2.38,3.81,6.19,5.36,8.56a48.65,48.65,0,0,1,8.34-.62,76.82,76.82,0,0,1,9.17.62c-6.49-8.15-9.26-11.75-17.4-23.19-1.55-2.17-3.83-5.57-5.37-7.73l-2.88-4.12M291.66,33.76c1.55-.09,5.36-.51,7.32-.51,3.4,0,6.8.51,9.59,2.58,3.6,2.67,4.32,6.39,4.32,10.72,0,6.7-3.81,14.22-14.12,14.22-2.68,0-5.15-.21-7.11-.3Z"/><path class="b" d="M234.48,130.55h-4.23s-.58-2.61,1-3.6a27.34,27.34,0,0,1,3.27-1.79v5.39m20.1-9.76a30.7,30.7,0,0,0-4.2,2.93c-1.62,1.44.33,2,.33,2v4.85H238.42v-17s-4.49,4.12-4.9,4.67,1.07,1.11,1.07,1.11l-.25,1.6a42.7,42.7,0,0,0-4,2.4c-2.15,1.45-3.75,3.29-3.75,4.57s-.54,6.32-.54,6.32h28.49Zm-25.44-6.2c1.4,0,2.39-.56,2.39-1.67s-.66-1.91-2.39-1.91c-1.55,0-2,.68-2,1.91S227.71,114.59,229.14,114.59Zm5.24,0c1.42,0,2.37-.56,2.37-1.67s-.65-1.91-2.37-1.91c-1.56,0-2,.68-2,1.91S233,114.59,234.38,114.59Zm7.93,21.13c-1.52,0-1.95.65-1.95,1.89s.54,1.67,1.95,1.67,2.4-.55,2.4-1.67S244.06,135.72,242.31,135.72Zm5.45,0c-1.54,0-1.95.65-1.95,1.89s.55,1.67,1.95,1.67,2.4-.55,2.4-1.67S249.52,135.72,247.76,135.72Zm61.41-21.46c1.41,0,2.41-.55,2.41-1.66s-.65-1.9-2.41-1.9c-1.53,0-1.94.66-1.94,1.9S307.78,114.26,309.17,114.26Zm5.45,0c1.4,0,2.38-.55,2.38-1.66s-.65-1.9-2.38-1.9c-1.54,0-2,.66-2,1.9S313.19,114.26,314.62,114.26Zm15,.46c-.77.66-.55,1.46.43,1.34v18.22h4V111.6S330.4,114.06,329.65,114.72Zm-16.23,10.21h-2.61c0-1.43,2.61-2.22,2.61-2.22Zm-17.21,3c0,.66,0,1.74-.06,2.61H273.34v-4c.6-1.54,1.6-1.72,3.16-1.72h16.67C296.77,124.82,296.21,126.71,296.21,127.94Zm26.68-11.89v14.5h-5.43V117.38s-1.11.43-2.64,1.09-7,2.91-7,5.91v3.47h5.57v2.7h-13.2c0-.64,0-1.57,0-3a6.75,6.75,0,0,0-7-6.67H278c-2.68,0-4,.65-4.69,1.38V111.15s-2.38,1.67-4.13,3,0,2.23,0,2.23v14.17h-5l-.11-12.16s-3.48,2.54-4.48,3.31-.43,1.46.66,1.46c0,0-.2,9-.2,11.1s-1.76,4.57-5.47,3.46c0,0-1.17.23-.2,1.11a5.25,5.25,0,0,0,3.47,1.56c1.31,0,6.11-.9,6.11-6.13h62.92V111.59s-3.7,2.44-4.46,3.11S321.9,116.16,322.89,116.05Z"/><path class="b" d="M406.33,95.91a33.72,33.72,0,0,1-9.05,1.86c-2.87,0-7.51,1.58-9.19,3,6.93-.11,14.28-.26,21.53-.43-.48-.73-2-3-2-3a10.7,10.7,0,0,0-1.18-1.48l-.09,0M364.55,44.5c9,0,25.67-.23,42.1-.6q2.81-2.25,5.84-4.53c-18.21-.46-37.84-.74-47.94-.74-4.26,0-7.71,1.32-7.71,2.94s3.45,2.93,7.71,2.93m2.59-14.17c0,1.27,2.71,2.3,6.06,2.3,10.31,0,33.22-.37,49.94-.94,1.25-.87,2.51-1.76,3.73-2.59C410,28.45,384.29,28,373.2,28c-3.35,0-6.06,1-6.06,2.3m74.28,32a40.94,40.94,0,0,0,6.84,3.2c8.76-.44,14.39-.93,14.39-1.45S454,62.82,441.42,62.3m-82.08-6.21c7.66,0,20.17-.14,33.79-.39,2-1.87,4.05-3.78,6.26-5.71-16-.32-31.22-.52-40.05-.52-4.79,0-8.69,1.48-8.69,3.31s3.9,3.31,8.69,3.31m87-15.42c-1.33.68-2.57,1.35-3.83,2,6.45-.35,10.55-.73,10.55-1.13s-2.54-.62-6.72-.9M386.89,23c9.81,0,39.63-.74,39.63-1.64s-29.83-1.63-39.63-1.63c-1.9,0-3.44.73-3.44,1.63S385,23,386.89,23m64.21,29.5a7.14,7.14,0,0,1-.6,1.37c5.44-.34,8.77-.72,8.77-1.1s-3-.71-8-1Zm-37.05,54.34c-18.65-.49-39.11-.78-49.5-.78-4.26,0-7.71,1.32-7.71,2.94s3.45,2.92,7.71,2.92c10.93,0,33-.33,52.43-.85-1-1.39-2-2.82-2.93-4.23m8.8,12c-16.69-.57-39.4-.94-49.65-.94-3.35,0-6.06,1-6.06,2.31s2.71,2.31,6.06,2.31c10.74,0,35.16-.41,52-1-.78-.85-1.57-1.75-2.36-2.66m-39.4,10.32c0,.9,1.54,1.65,3.44,1.65,9.8,0,39.63-.75,39.63-1.65s-29.82-1.63-39.63-1.63c-1.9,0-3.44.74-3.44,1.63M365.8,90a6.71,6.71,0,0,1,1.29-2.72c-.1.14-.18.25,0,0,.67-1.14,1.56-2.57,2.65-4.23C364.55,83,360,83,356.51,83c-5.1,0-9.24,1.57-9.24,3.51S351.41,90,356.51,90c2.61,0,5.75,0,9.29,0m7.55,11c-1.24-1.22-5.43-6-5.94-6.5-3,0-5.79,0-8.07,0-4.79,0-8.69,1.49-8.69,3.32s3.9,3.31,8.69,3.31c3.68,0,8.5,0,14-.09m-.64-22.27c1.51-2.08,3.26-4.37,5.29-6.84-9-.13-16.9-.2-22.44-.2-5.2,0-9.41,1.61-9.41,3.58s4.21,3.59,9.41,3.59c4.41,0,10.37-.05,17.15-.13m-16.2-11.17c6.11,0,15.14-.08,25.39-.24,1.83-2.07,3.81-4.22,6-6.46-12.68-.22-24.09-.33-31.37-.33-5.1,0-9.24,1.57-9.24,3.51s4.14,3.52,9.24,3.52"/><path class="b" d="M463.63,72.63c.07,1.79.06,3.56,0,5.3-17.37.69-33.81,1.73-33.81,2.91S445.88,83,463,83.71c-.31,2-.69,3.93-1.17,5.83-16.91.69-32.6,1.71-32.6,2.85s14.65,2.1,30.87,2.79a56.35,56.35,0,0,1-2.53,6c-13.93.67-25.45,1.56-25.45,2.54s10.06,1.75,22.75,2.41c-.72,1.16-1.46,2.29-2.24,3.37S451,111.83,450,113c-7.93.61-13.36,1.29-13.36,2s3.89,1.23,9.89,1.76a57.31,57.31,0,0,1-11.72,8.91,93,93,0,0,1-9.8-10c-4-4.82-12.35-17.53-14.33-20.37s-3.28-3.68-5.59-2.85a30.93,30.93,0,0,1-7.8,1.64c-1.11,0-1.71-.43.14-1.17s9.16-4.19,12.77-11.33c4-8,.48-19.13.48-19.13-1.35,5.93-4.44,8.14-4.44,8.14,1-5.5-.09-10.5-2.81-14l-1.52,7s-.95,0-3.29,1.94a9.86,9.86,0,0,0-3,4.85c1.85.75,4.07-1.1,4.07-1.1-2.84,10.62-6.9,19.26-9.87,23.83s-5.41,6.29-8.39,7.49c-2.5,1-3.33-.16-3.33-.16a45.59,45.59,0,0,1-5.54-5.7s-.13-.24.33-.23c1.22,0,3.4-2.07,3.87-2.94s.49-1.74.21-1.8-.73.74-3.08,2.23-3.42.45-4.2-.38c-.61-.65,0-1.46.37-2S382.79,66,415.58,41.72c43-31.82,70.42-40.4,72-41,1-.41,2.73-.95,3.12-.55a1.52,1.52,0,0,1,.57,1.32c-.05.52-.33.78-2.31,1.66-16.5,7.27-35.76,19.38-46.7,26.43C428.8,36.11,416,45.47,415.48,45.69c-1,.65-.27,1.58.36,1.19C438.56,31.77,465.2,21.47,494.63,13c1.41-.4,2.18-.4,2.42-.09a2.2,2.2,0,0,1,.41,1.17c0,.54-.4.82-1.61,1.3Q448.42,33,425.93,48.16s-1.56.94-1.58,2c0,.41.83.46.83.46,7.51.14,17.54.58,22.31.86,0,0-.67,2.41-5.24,4.36-3.54,1.51-6.8,1.27-10,1.29a.9.9,0,0,0-.76,1.49c.29.39,7.17,11.46,32.17,14"/></svg>