<svg xmlns="http://www.w3.org/2000/svg" width="106.13mm" height="59.98mm" viewBox="0 0 300.85 170.02"><defs><style>.a{fill:#fff;}</style></defs><title>thailand</title><path class="a" d="M218.44,27.85a6.58,6.58,0,0,0-3.75-1.73c-2.8-.52-8.19-.21-8.19-1.49,0-.95,1.44-1.6,1.72-1.7a6.94,6.94,0,0,0,2.13.31,7.08,7.08,0,0,0,7.22-6.94,6.48,6.48,0,0,0-1-3.49c.93-.3,2.11-1.59,2-3.94A4.39,4.39,0,0,1,215,10.1h-1.4a6.69,6.69,0,0,0-3.17-.75,7.14,7.14,0,0,0-7.29,7,6.86,6.86,0,0,0,3,5.57c-1.41,1.09-2.58,2.08-2.58,3.53a2.7,2.7,0,0,0,.85,2c2.31,2.08,7.61,1.08,10.93,2.06,1.86.53,1.86,1.4,1.86,1.69a1.55,1.55,0,0,1-.61,1.2,8.62,8.62,0,0,1-5.73,1.8c-3.6,0-5.47-1.28-5.47-2.37s1-1.82,3.13-1.64a4.25,4.25,0,0,0-2.89-1.37A3.66,3.66,0,0,0,202,32.48c0,1.58,1.42,4.32,7.77,4.32,5.81,0,9.8-3,9.8-6.1A4.27,4.27,0,0,0,218.44,27.85Zm-8-16.35c2,0,3.75,2,3.75,4.82S212.34,21,210.46,21s-3.74-1.79-3.74-4.72S208.44,11.5,210.46,11.5Z"/><path class="a" d="M97.59,26.48c-1.79,1.31-2-.09-2-.62V15.39c0-3.94-2.27-6-6.53-6a9.49,9.49,0,0,0-7.17,3.09l-.23.29,1,.74.19-.18a8.74,8.74,0,0,1,5-1.82c1.44,0,4.42.83,4.42,3.42v1.31c-3.54.7-10.9,2.17-10.9,7.59,0,4,3.44,5,5.47,5a6.29,6.29,0,0,0,4.78-2.56h0v-2l-.58.47A4.51,4.51,0,0,1,88,26a2.78,2.78,0,0,1-3-2.9c0-2,2.71-3.75,7.29-4.63v6.69c0,3.12,1.33,3.63,2.15,3.63a5.63,5.63,0,0,0,3.13-1.49l.39-.32Z"/><path class="a" d="M148.9,26.48c-1.8,1.31-2-.09-2-.62V15.39c0-3.94-2.26-6-6.52-6a9.42,9.42,0,0,0-7.17,3.09l-.24.29,1,.74.19-.18a8.71,8.71,0,0,1,5-1.82c1.45,0,4.43.83,4.43,3.42v1.31c-3.53.7-10.9,2.17-10.9,7.59,0,4,3.44,5,5.48,5a6.3,6.3,0,0,0,4.77-2.56h0v-2l-.57.47a4.54,4.54,0,0,1-3,1.17,2.78,2.78,0,0,1-3.05-2.9c0-2,2.71-3.75,7.29-4.63v6.69c0,3.12,1.34,3.63,2.16,3.63a5.48,5.48,0,0,0,3.1-1.49l.41-.32Z"/><path class="a" d="M174.88,0c-.53,1.5-2.27,2.29-2.27,4.05,0,1.56,2.27,2.41,2.27,3.08,0-.67,2.27-1.52,2.27-3.08C177.15,2.29,175.41,1.5,174.88,0Z"/><path class="a" d="M182,9.54v1h.78a.86.86,0,0,1,.86.86V28.74h3.5V16.89c0-1.39,1.23-4.74,4.2-4.74,2.34,0,3.48,1.36,3.48,4.18V28.74H200v-1h-.79a.85.85,0,0,1-.85-.87V16.19c0-3.3-1.51-6.84-5.59-6.84a7.29,7.29,0,0,0-5.73,2.94V9.54Z"/><path class="a" d="M173.45,28.74h5.17v-1h-.78a.86.86,0,0,1-.86-.87V9.54h-1.34l-3.87,1.36v.85h.81a.87.87,0,0,1,.87.87Z"/><path class="a" d="M167.62,24.48l-.13.23c-.62,1.17-1.24,1.72-3.07,1.72h-7.61l10.31-15.22V9.54H153.53l-.86,4.06.75.18.12-.23c.63-1.17,1.25-1.73,3.08-1.73h6L152.39,27v1.75h15.12l.87-4.08Z"/><path class="a" d="M128.62,27.76a.86.86,0,0,1-.86-.87V16.19c0-3.3-1.51-6.84-5.58-6.84a7.28,7.28,0,0,0-5.73,2.94,5,5,0,0,0-.45.64,5.09,5.09,0,0,0-5-3.58,7.05,7.05,0,0,0-5.59,2.94V9.54h-5.05v1h.79a.86.86,0,0,1,.86.86V28.74h3.5V16.89c0-1.39,1.09-4.74,4.06-4.74,2.33,0,3.48,1.36,3.48,4.18V28.74h3.53V16.89c0-1.39,1.22-4.74,4.2-4.74,2.33,0,3.49,1.36,3.49,4.18V28.74h5.17v-1Z"/><path class="a" d="M73.06,83.65c-1.9,0-2.48-1.49-2.48-3.29V42.12h-7.2V60.25H46V42.12h-7.2V80.36c0,1.8-.58,3.29-2.48,3.29H34.75v1.29H46V65.75H63.38V84.94H74.63V83.65Z"/><path class="a" d="M125.23,42.12V84.94h11.24V83.65h-1.56c-1.9,0-2.47-1.49-2.47-3.29V42.12Z"/><path class="a" d="M171.05,75.23a11.56,11.56,0,0,1-1.38,2.22,5.35,5.35,0,0,1-1.6,1.32,6,6,0,0,1-2.06.64,19.13,19.13,0,0,1-2.85.18H153.1c-1.73,0-2.46-.58-2.46-1.75V42.12h-7.19V80.36c0,1.8-.57,3.28-2.48,3.28h-1.56v1.3h30.33L172,75.4Z"/><path class="a" d="M250.75,42.18V73.07L229.9,42.18h-6.59V80.36c0,1.8-.57,3.29-2.48,3.29h-1.56v1.29h11.24V54.55l20.56,30.39h6.84V42.18Z"/><path class="a" d="M195.38,90.9c8.5-9.59,27,3.43,35.94-2.92-1.94,3.6-8,6.11-10.41,8-10.09,7.87-8.68,27-17.73,43.16-10.7,19-34.9,36-65.56,29.4-27.26-5.87-38.17-26.47-43.11-39.68-4.22-11.29-5.71-14.07-12.1-20,14.22,4.7,20.33,23.43,46,28.95,20.76,4.48,45.61-1.2,59.52-18.16,11.68-14.28,12.72-21.89,20.72-26.68C205.42,92.18,201.76,88.89,195.38,90.9Z"/><path class="a" d="M98.36,51.2l4.35,10.86a19.63,19.63,0,0,1,8.88,2.21l-9.21-22.09h-5.2l-9.09,22a16.58,16.58,0,0,1,5.81-1.85Z"/><path class="a" d="M193.1,51.2l4.35,10.86a19.63,19.63,0,0,1,8.88,2.21l-9.21-22.09h-5.2l-9.08,22a16.46,16.46,0,0,1,5.8-1.85Z"/><path class="a" d="M34,42.12H.41L0,51.36H1c.33-1.51.75-3,1.43-3.55a5.67,5.67,0,0,1,3.51-.93h7.7V84.94H24.88V83.65H23.32c-1.91,0-2.48-1.49-2.48-3.29V46.88H28.4a5.34,5.34,0,0,1,3.28.84,8.22,8.22,0,0,1,1.58,3.64h1Z"/><path class="a" d="M276.71,42.21c6.62,0,24.14,1.3,24.14,21.47,0,20.59-18.72,21.26-25.93,21.26H261V83.65h1.56c1.9,0,2.48-1.49,2.48-3.29V42.21Zm-4.29,4.63V80.42h1.51c5.85,0,11.05-1.25,15-4.68s4.36-9.49,4.36-12.11-.41-8.22-4.34-12.1-10.82-4.69-13.68-4.69Z"/><path class="a" d="M99.79,68.33c2.56,0,5.89.26,7.73,5.53l1.69,5.38a8,8,0,0,0,5.14,5,18.79,18.79,0,0,0,5.42.69h2V83.65c-2.25,0-3.87-.93-5.21-4.74l-2.45-7.29c-1.73-5.14-6.19-6.57-14.34-6.57s-12.61,1.43-14.35,6.57L83,78.91c-1.34,3.81-3,4.74-5.2,4.74v1.28h2a18.75,18.75,0,0,0,5.42-.69,8,8,0,0,0,5.14-5l1.69-5.38C93.89,68.59,97.22,68.33,99.79,68.33Z"/><path class="a" d="M194.53,68.33c2.57,0,5.9.26,7.73,5.53L204,79.24a8,8,0,0,0,5.14,5,18.79,18.79,0,0,0,5.42.69h2V83.65c-2.25,0-3.87-.93-5.21-4.74l-2.45-7.29c-1.73-5.14-6.19-6.57-14.34-6.57s-12.61,1.43-14.35,6.57l-2.45,7.29c-1.33,3.81-3,4.74-5.2,4.74v1.28h2a18.75,18.75,0,0,0,5.42-.69,8,8,0,0,0,5.14-5l1.69-5.38C188.63,68.59,192,68.33,194.53,68.33Z"/></svg>